<?xml version="1.0" standalone="no"?>
<!DOCTYPE svg PUBLIC "-//W3C//DTD SVG 20010904//EN"
 "http://www.w3.org/TR/2001/REC-SVG-20010904/DTD/svg10.dtd">
<svg version="1.0" xmlns="http://www.w3.org/2000/svg"
 width="530.000000pt" height="530.000000pt" viewBox="0 0 530.000000 530.000000"
 preserveAspectRatio="xMidYMid meet">
<metadata>
Created by potrace 1.14, written by Peter Selinger 2001-2017
</metadata>
<g transform="translate(0.000000,530.000000) scale(0.100000,-0.100000)"
fill="#000000" stroke="none">
<path d="M2730 4740 c-12 -8 -13 -13 -2 -30 10 -16 9 -44 -3 -148 -8 -70 -15
-152 -15 -182 0 -30 -7 -68 -16 -85 -14 -26 -14 -31 0 -41 23 -16 214 -26 261
-13 85 23 165 145 165 250 0 47 -34 135 -63 167 -49 53 -73 62 -194 77 -64 8
-117 15 -118 15 0 0 -7 -5 -15 -10z m202 -65 c106 -16 168 -159 119 -271 -46
-103 -92 -128 -216 -118 l-83 7 4 61 c6 84 23 253 30 298 6 41 25 49 79 36 17
-4 47 -10 67 -13z"/>
<path d="M2492 4728 c-16 -16 -15 -34 8 -200 16 -107 18 -149 10 -173 -24 -72
-106 -108 -179 -79 -64 25 -68 35 -111 304 -13 82 -23 100 -52 100 -21 0 -37
-29 -20 -39 5 -3 15 -33 21 -66 5 -33 18 -103 27 -155 21 -122 38 -151 110
-189 50 -27 109 -27 159 0 87 47 113 108 96 228 -6 42 -15 108 -21 146 -5 39
-9 83 -7 100 2 32 -19 45 -41 23z"/>
<path d="M3296 4651 c-3 -5 -20 -62 -37 -127 -17 -66 -42 -162 -56 -214 -32
-122 -32 -124 -6 -128 23 -3 24 -2 73 183 52 191 70 270 66 282 -6 15 -32 17
-40 4z"/>
<path d="M1895 4605 c-60 -29 -182 -83 -247 -110 -48 -20 -68 -33 -68 -46 0
-27 18 -32 53 -16 59 29 130 58 132 55 5 -6 54 -117 90 -203 66 -160 85 -195
106 -195 12 0 19 7 19 19 0 17 -38 114 -59 152 -16 28 -101 238 -101 249 0 5
4 10 9 10 6 0 42 15 80 33 49 22 71 38 71 50 0 21 -41 22 -85 2z"/>
<path d="M3569 4521 c-43 -14 -72 -32 -107 -65 -53 -49 -67 -89 -67 -186 0
-78 2 -89 30 -130 61 -90 163 -133 263 -110 137 30 209 126 200 265 -6 96 -51
165 -133 207 -43 23 -144 33 -186 19z m183 -78 c101 -68 118 -213 37 -305 -28
-31 -108 -68 -149 -68 -37 0 -118 35 -147 64 -46 46 -63 123 -46 207 8 41 79
114 125 128 55 17 133 6 180 -26z"/>
<path d="M1376 4323 c-38 -10 -93 -54 -114 -92 -27 -48 -28 -97 -3 -135 41
-61 87 -68 222 -35 96 25 131 21 154 -15 14 -21 14 -28 2 -58 -19 -44 -67 -85
-120 -99 -23 -6 -53 -16 -66 -23 -20 -9 -21 -12 -7 -14 10 -2 15 -10 12 -18
-4 -12 -2 -12 14 -4 14 8 20 8 20 0 0 -6 8 -4 17 6 9 9 19 12 20 7 2 -6 19 -3
40 8 89 45 147 140 123 199 -33 79 -97 96 -228 60 -94 -26 -123 -25 -150 3
-29 31 -28 69 4 106 33 39 58 53 109 60 32 5 41 11 43 29 3 20 -1 22 -35 21
-21 -1 -47 -4 -57 -6z"/>
<path d="M988 4008 c-125 -139 -143 -161 -143 -182 0 -12 6 -20 13 -18 6 1 12
-3 12 -8 0 -5 6 -10 13 -10 7 0 19 -8 28 -17 8 -10 29 -29 47 -43 17 -14 32
-31 32 -38 0 -7 4 -11 9 -7 5 3 17 -5 25 -17 9 -12 16 -19 16 -15 0 4 8 -1 18
-10 11 -10 17 -21 15 -25 -2 -5 5 -8 16 -8 12 0 21 -7 21 -16 0 -8 3 -13 8
-11 9 6 33 -19 25 -27 -4 -3 1 -6 11 -6 9 0 15 -4 11 -9 -3 -5 -1 -12 5 -16 6
-4 8 -11 5 -16 -4 -5 5 -9 19 -9 14 0 26 4 26 8 0 15 37 52 44 45 3 -3 6 -2 6
4 0 6 16 28 35 49 57 63 69 78 91 106 12 15 24 24 28 21 9 -9 7 29 -2 44 -5 8
-13 8 -32 -2 -14 -8 -22 -14 -17 -15 4 0 -1 -8 -10 -18 -10 -11 -21 -17 -25
-15 -4 2 -10 -7 -14 -21 -3 -14 -9 -24 -13 -23 -8 2 -60 -51 -54 -56 2 -3 -5
-8 -16 -12 -12 -3 -19 -10 -16 -15 3 -4 -2 -11 -11 -14 -11 -4 -29 7 -55 34
-21 22 -39 37 -39 34 0 -3 -6 1 -13 8 -17 17 -30 51 -17 43 6 -3 10 -1 10 4 0
6 7 11 16 11 8 0 12 5 9 10 -3 6 -2 10 3 10 5 0 14 12 20 26 7 14 16 23 21 19
5 -3 12 4 16 15 3 11 10 20 14 20 8 0 31 44 31 60 0 17 -31 11 -57 -10 -14
-11 -23 -20 -20 -20 3 0 -5 -12 -18 -26 -14 -15 -25 -31 -25 -36 0 -5 -4 -6
-10 -3 -5 3 -10 1 -10 -5 0 -6 -6 -8 -12 -4 -7 4 -10 3 -5 -1 8 -10 -21 -45
-37 -45 -7 0 -18 9 -26 20 -8 11 -20 20 -28 20 -7 0 -10 5 -7 10 3 6 -1 10 -9
10 -9 0 -16 4 -16 8 0 5 -9 17 -19 29 -21 22 -31 8 97 148 64 69 66 73 52 90
-7 8 -16 15 -20 15 -4 0 -36 -33 -72 -72z"/>
<path d="M4202 3994 c-43 -19 -108 -85 -127 -130 -18 -44 -20 -162 -3 -201 24
-54 69 -102 123 -129 45 -21 58 -24 70 -14 24 20 18 30 -27 51 -56 25 -70 37
-102 83 -21 32 -26 50 -26 103 0 68 15 109 55 148 39 40 80 55 148 55 53 0 71
-5 103 -26 46 -32 58 -46 83 -101 21 -46 31 -52 51 -28 10 12 7 25 -14 70 -27
54 -75 99 -129 123 -38 16 -164 14 -205 -4z"/>
<path d="M4678 3632 c-14 -20 -50 -41 -208 -125 -52 -27 -104 -56 -115 -63
-11 -8 -32 -14 -47 -14 -21 0 -28 -5 -28 -20 0 -33 50 -45 85 -20 6 4 36 21
67 39 l57 31 31 -55 c20 -35 29 -62 25 -74 -3 -11 -28 -53 -55 -94 -52 -79
-65 -114 -51 -135 13 -22 45 -10 51 19 5 24 88 169 97 169 2 0 24 -9 49 -20
37 -17 51 -19 83 -10 55 15 99 63 107 117 6 39 2 54 -35 126 -76 151 -88 164
-113 129z m66 -146 c50 -101 41 -146 -35 -175 -29 -11 -71 6 -95 37 -23 29
-76 134 -71 139 12 11 152 81 157 78 3 -2 23 -38 44 -79z"/>
<path d="M1887 3244 c-3 -4 -34 -8 -69 -11 -35 -2 -65 -9 -66 -14 -3 -6 -9 -5
-18 2 -9 7 -14 8 -14 1 0 -6 -11 -9 -25 -8 -14 2 -22 -1 -18 -7 4 -6 -4 -8
-20 -5 -15 3 -28 2 -29 -3 -2 -4 -14 -9 -28 -12 -14 -2 -41 -10 -60 -19 -19
-8 -48 -18 -63 -22 -18 -4 -25 -11 -20 -19 4 -7 -2 -5 -12 3 -10 8 -16 10 -12
4 8 -13 -40 -37 -55 -28 -7 4 -8 2 -4 -4 4 -7 1 -12 -8 -12 -8 0 -19 -8 -25
-17 -5 -10 -13 -18 -18 -17 -18 2 -42 -9 -37 -17 2 -5 -7 -11 -21 -15 -13 -3
-22 -10 -19 -15 3 -5 -2 -9 -10 -9 -9 0 -16 -5 -16 -11 0 -5 -4 -8 -9 -4 -5 3
-40 -24 -78 -61 -37 -36 -69 -65 -70 -65 -2 1 -3 -2 -2 -5 0 -4 -11 -14 -25
-24 -15 -9 -23 -20 -19 -23 3 -4 -1 -7 -9 -7 -9 0 -19 -11 -22 -25 -4 -14 -11
-23 -16 -20 -6 3 -10 -1 -10 -9 0 -9 -5 -16 -11 -16 -5 0 -8 -4 -4 -9 3 -5 -4
-12 -15 -16 -11 -4 -18 -11 -15 -16 4 -5 1 -9 -5 -9 -6 0 -9 -4 -6 -8 3 -5 -6
-21 -20 -37 -13 -15 -24 -34 -24 -42 0 -7 -5 -13 -12 -13 -6 0 -9 -3 -5 -6 3
-4 -5 -22 -18 -42 -13 -19 -22 -39 -19 -44 3 -4 0 -8 -6 -8 -6 0 -8 -4 -5 -10
3 -5 2 -10 -4 -10 -5 0 -8 -9 -6 -20 2 -11 0 -18 -4 -15 -8 5 -18 -17 -27 -60
-3 -10 -10 -23 -17 -27 -9 -6 -9 -8 1 -8 10 0 9 -6 -2 -28 -8 -15 -18 -46 -21
-67 -4 -22 -12 -46 -18 -52 -6 -9 -6 -13 2 -13 7 0 9 -5 4 -12 -13 -21 -30
-98 -20 -91 5 3 4 -4 -2 -16 -9 -16 -9 -21 1 -21 10 0 10 -2 -1 -9 -9 -6 -10
-11 -2 -15 6 -4 8 -12 5 -18 -10 -16 -11 -108 -2 -108 5 0 5 -8 1 -17 -8 -16
-9 -39 -3 -53 1 -3 3 -18 5 -35 10 -79 13 -94 21 -106 4 -7 8 -25 8 -39 1 -14
4 -29 7 -35 3 -5 12 -30 19 -55 7 -25 18 -51 24 -59 8 -11 8 -13 -1 -8 -8 5
-8 1 0 -18 7 -14 15 -25 20 -25 4 0 7 -9 7 -19 0 -11 7 -26 15 -35 9 -8 16
-19 15 -23 0 -18 12 -43 21 -43 5 0 9 -9 9 -19 0 -11 4 -21 9 -23 5 -1 11 -10
13 -18 2 -8 5 -17 8 -20 3 -3 22 -27 42 -55 20 -27 48 -61 62 -74 14 -14 26
-30 26 -37 0 -7 10 -16 21 -19 17 -6 19 -9 8 -16 -11 -7 -11 -9 3 -9 9 0 22
-8 27 -17 6 -10 11 -15 11 -11 0 10 50 -41 50 -52 0 -5 8 -11 18 -14 10 -4 35
-22 56 -41 21 -19 46 -37 57 -40 10 -4 19 -11 19 -16 0 -6 5 -7 10 -4 6 3 10
1 10 -4 0 -6 7 -11 15 -11 8 0 15 -5 15 -11 0 -5 5 -7 10 -4 6 3 10 1 10 -5 0
-6 4 -9 9 -6 5 3 12 -1 15 -10 4 -9 13 -14 21 -10 8 3 15 1 15 -4 0 -5 16 -14
35 -21 19 -7 35 -16 35 -21 0 -4 7 -5 15 -2 8 4 15 1 15 -7 0 -7 3 -9 7 -6 3
4 13 1 21 -6 13 -10 14 -9 8 1 -7 11 -4 11 15 0 13 -7 27 -17 31 -23 4 -5 8
-6 8 -1 0 5 7 3 15 -4 12 -10 15 -10 15 0 0 9 3 10 13 1 8 -6 17 -8 20 -4 4 3
7 1 7 -6 0 -7 7 -11 15 -8 8 4 17 2 20 -3 3 -5 19 -8 36 -6 16 2 32 0 35 -5 2
-4 11 -6 18 -3 8 3 17 0 21 -6 6 -9 10 -9 16 1 5 8 9 9 9 3 0 -7 11 -9 26 -6
20 4 25 2 19 -8 -6 -9 -3 -10 11 -2 11 5 28 8 39 5 36 -7 85 -8 85 -2 0 5 41
4 48 -1 6 -5 39 -2 55 5 9 4 32 5 50 3 19 -2 39 1 44 7 6 7 27 10 47 9 20 -2
36 1 36 7 0 6 5 7 10 4 6 -3 10 -2 10 4 0 5 9 8 20 6 11 -2 22 1 25 6 4 5 10
7 15 4 5 -3 11 -1 15 5 4 6 11 8 16 5 5 -4 9 -1 9 4 0 6 3 10 8 10 16 -3 72
14 72 22 0 5 7 6 15 3 8 -4 15 -2 15 3 0 5 16 15 35 22 19 7 35 16 35 21 0 5
6 7 13 4 8 -3 20 2 27 11 7 8 19 15 26 15 8 0 14 5 14 11 0 5 5 7 10 4 6 -3
10 -1 10 5 0 6 4 9 9 6 5 -4 11 -1 13 5 2 7 10 4 18 -7 13 -16 13 -17 0 -10
-12 6 -11 4 1 -6 9 -7 14 -19 12 -25 -3 -7 0 -13 6 -13 6 0 10 -3 9 -8 -5 -18
14 -50 37 -62 14 -7 25 -17 25 -22 0 -4 6 -8 14 -8 8 0 17 -7 20 -16 3 -9 13
-14 20 -11 8 3 16 2 18 -4 2 -5 39 -12 84 -15 62 -5 92 -3 132 10 60 20 130
82 161 143 21 42 21 49 21 672 0 585 -1 637 -20 729 -10 55 -29 128 -41 163
-30 91 -110 248 -174 343 -58 86 -146 186 -164 186 -6 0 -10 4 -8 8 1 4 -10
20 -25 35 -16 15 -28 24 -28 20 0 -4 -13 7 -29 25 -17 18 -31 32 -33 30 -7 -6
-57 40 -50 46 3 4 -1 4 -11 0 -10 -3 -17 -1 -17 5 0 6 -6 11 -14 11 -8 0 -22
7 -30 16 -9 8 -16 12 -16 7 0 -4 -4 -3 -8 2 -9 13 -49 35 -63 35 -6 0 -17 7
-26 15 -8 8 -19 13 -24 10 -5 -4 -9 -1 -9 4 0 6 -9 11 -20 11 -11 0 -20 4 -20
10 0 5 -6 7 -14 4 -8 -3 -17 0 -21 5 -3 6 -11 9 -16 6 -5 -4 -9 -2 -9 2 0 5
-12 10 -27 11 -15 1 -29 5 -32 10 -3 4 -15 8 -26 8 -23 2 -70 11 -70 15 0 2
-3 2 -99 13 -33 3 -62 8 -64 11 -3 3 -11 0 -19 -6 -10 -9 -13 -8 -13 0 0 7 -5
9 -12 5 -16 -10 -68 -11 -68 -1 0 5 -6 5 -12 1 -16 -10 -61 -11 -69 -1 -3 4
-8 4 -12 1z m93 -534 c13 -7 21 -7 25 0 4 7 13 7 26 0 14 -8 19 -7 19 2 0 10
2 10 9 -1 5 -7 13 -11 19 -7 6 3 14 2 17 -4 5 -8 11 -7 21 1 8 7 14 7 14 1 0
-5 14 -12 30 -16 17 -3 44 -9 60 -12 17 -4 30 -10 30 -14 0 -4 13 -10 29 -13
16 -3 35 -13 44 -21 8 -8 17 -12 21 -9 3 4 6 1 6 -6 0 -7 4 -10 9 -7 5 3 12
-1 15 -10 3 -8 10 -12 16 -9 5 3 10 1 10 -4 0 -6 7 -11 15 -11 8 0 15 -3 16
-7 0 -5 27 -28 59 -53 33 -25 60 -48 60 -52 0 -4 13 -20 28 -35 16 -16 37 -43
47 -60 11 -18 23 -33 28 -33 4 0 5 -4 2 -10 -3 -5 -1 -10 6 -10 7 0 9 -3 6 -7
-4 -3 3 -17 15 -30 15 -16 17 -23 7 -23 -11 -1 -10 -4 3 -14 10 -7 19 -28 21
-46 2 -17 10 -35 16 -40 7 -4 12 -10 11 -14 -4 -14 13 -92 22 -103 7 -9 7 -13
-1 -13 -7 0 -9 -5 -5 -12 11 -18 12 -48 2 -48 -5 0 -4 -9 2 -20 6 -11 7 -20 2
-20 -10 0 -9 -30 2 -48 4 -7 2 -12 -5 -12 -10 0 -10 -3 -1 -12 8 -8 8 -17 1
-30 -6 -10 -12 -33 -14 -51 -5 -46 -12 -72 -23 -93 -17 -31 -25 -58 -23 -73 1
-7 -2 -10 -8 -6 -6 3 -11 -1 -11 -9 0 -9 -4 -16 -10 -16 -5 0 -10 -3 -9 -7 2
-16 -14 -53 -22 -53 -5 0 -9 -7 -9 -15 0 -8 -7 -15 -16 -15 -8 0 -13 -4 -10
-9 3 -5 -6 -20 -21 -35 -14 -14 -23 -26 -19 -26 4 0 1 -6 -6 -14 -7 -8 -17
-13 -23 -13 -5 1 -9 -4 -8 -10 2 -7 -3 -12 -10 -10 -6 1 -11 -4 -9 -11 1 -8
-1 -11 -6 -8 -5 3 -16 -3 -25 -12 -26 -28 -47 -43 -47 -35 0 4 -4 4 -8 -2 -15
-21 -73 -56 -82 -50 -6 3 -10 1 -10 -6 0 -7 -3 -10 -6 -6 -4 3 -13 -1 -21 -9
-9 -8 -22 -13 -29 -10 -8 3 -14 1 -14 -4 0 -6 -9 -10 -20 -10 -11 0 -20 -4
-20 -9 0 -6 -9 -8 -20 -6 -11 2 -22 0 -24 -4 -3 -4 -22 -8 -43 -9 -21 -2 -39
-7 -41 -12 -2 -4 -16 -5 -31 0 -16 4 -34 4 -42 -1 -8 -4 -19 -3 -26 3 -9 7
-13 7 -13 0 0 -11 -25 -10 -36 1 -4 3 -15 2 -25 -3 -12 -7 -20 -7 -24 0 -4 6
-10 8 -15 5 -5 -3 -11 -1 -15 5 -4 6 -11 8 -16 4 -5 -3 -17 0 -26 8 -14 11
-15 11 -9 0 6 -11 4 -11 -13 -3 -52 27 -61 31 -66 31 -4 0 -3 -6 1 -12 4 -7
-4 -4 -17 8 -13 11 -46 31 -74 44 -27 14 -58 33 -67 43 -9 10 -19 18 -22 18
-20 -3 -26 0 -21 9 3 6 -1 10 -9 10 -9 0 -16 4 -16 8 0 5 -11 15 -25 22 -13 7
-27 21 -31 32 -3 10 -12 18 -20 18 -8 0 -12 5 -9 10 3 6 -1 10 -10 10 -9 0
-14 4 -11 8 3 5 -4 15 -15 22 -10 8 -19 20 -19 27 0 7 -3 13 -7 13 -10 1 -54
72 -53 84 1 5 -2 12 -7 15 -12 8 -43 75 -43 93 0 8 -3 18 -7 22 -4 3 -8 12 -9
19 -5 30 -10 43 -19 49 -6 5 -5 8 4 8 10 0 11 3 2 13 -6 8 -8 17 -4 20 3 4 2
7 -3 7 -10 0 -11 61 0 78 4 7 2 12 -4 12 -7 0 -8 6 0 19 6 12 6 22 1 25 -10 7
-9 25 2 44 5 7 3 12 -4 12 -8 0 -8 4 -1 13 10 12 26 93 20 101 -1 2 6 14 17
27 11 12 15 19 8 16 -6 -4 -3 9 6 30 10 21 24 53 32 71 8 17 17 32 20 32 4 0
12 14 19 30 7 17 22 37 34 45 11 8 17 15 12 15 -5 0 1 9 14 20 13 11 20 20 16
20 -9 0 112 108 144 129 14 8 28 20 32 26 4 5 11 10 15 10 4 1 19 7 33 15 14
8 32 15 40 16 8 2 16 8 18 14 2 5 8 8 13 4 5 -3 9 -1 9 3 0 5 12 10 26 11 15
1 33 7 41 13 7 7 16 9 19 6 3 -3 16 0 28 7 13 6 44 11 70 11 25 -1 46 2 46 7
0 11 7 10 30 -2z"/>
<path d="M4910 3129 c-30 -21 -365 -112 -388 -105 -10 3 -24 1 -32 -4 -15 -9
-8 -45 51 -259 23 -87 25 -91 45 -91 23 0 26 22 9 86 -40 147 -55 207 -53 210
11 9 154 42 159 36 4 -4 17 -49 29 -100 13 -51 29 -100 36 -110 11 -15 14 -15
28 -2 13 13 13 21 0 68 -8 28 -20 76 -28 105 -8 28 -12 55 -8 59 8 7 163 51
166 46 2 -2 17 -57 35 -123 32 -119 49 -154 70 -141 16 10 14 24 -18 143 -16
60 -34 127 -40 149 -13 50 -27 57 -61 33z"/>
<path d="M4587 2613 c-12 -11 -8 -50 6 -61 7 -6 38 -19 70 -29 l57 -17 0 -106
0 -106 -47 -14 c-50 -14 -97 -52 -90 -73 5 -15 38 -22 46 -9 6 9 90 45 320
136 62 24 118 49 123 54 19 19 3 44 -37 58 -107 38 -238 84 -310 109 -44 15
-89 36 -101 46 -22 21 -27 22 -37 12z m338 -180 c28 -9 53 -19 58 -23 6 -5
-84 -45 -195 -86 -16 -6 -18 2 -18 79 l0 85 53 -19 c28 -11 75 -27 102 -36z"/>
<path d="M5027 2123 c-2 -5 -10 -45 -17 -90 -12 -75 -15 -82 -34 -78 -12 2
-57 11 -101 20 -330 64 -320 62 -328 41 -8 -21 10 -32 78 -44 241 -46 341 -67
348 -73 5 -4 2 -44 -7 -89 -17 -88 -15 -100 13 -100 14 0 21 13 30 63 7 34 18
91 26 127 7 36 18 89 24 118 17 82 15 112 -8 112 -11 0 -22 -3 -24 -7z"/>
<path d="M4472 1722 c-6 -2 -12 -11 -12 -20 0 -13 43 -33 168 -80 92 -35 183
-70 202 -78 54 -23 95 -23 95 0 0 12 -15 24 -50 38 -112 43 -183 70 -235 88
-30 10 -78 27 -105 38 -28 10 -56 17 -63 14z"/>
<path d="M4320 1414 c0 -11 51 -82 113 -159 61 -78 126 -158 142 -179 17 -20
32 -47 35 -58 3 -12 11 -23 17 -25 12 -4 43 23 43 38 0 8 -224 293 -257 327
-7 7 -13 15 -13 16 0 2 26 -2 58 -9 31 -7 95 -18 142 -24 47 -7 107 -17 133
-22 76 -14 105 -12 112 11 9 29 -3 43 -32 35 -13 -3 -50 -1 -81 4 -186 33
-313 54 -359 58 -47 5 -53 3 -53 -13z"/>
<path d="M4132 1112 c-184 -66 -234 -298 -91 -426 52 -48 100 -66 173 -66 146
1 245 102 246 251 0 81 -18 127 -70 179 -71 71 -167 94 -258 62z m160 -56 c73
-31 118 -102 118 -186 0 -114 -86 -200 -200 -200 -214 0 -277 282 -85 383 38
20 122 21 167 3z"/>
</g>
</svg>
